<svg xmlns="http://www.w3.org/2000/svg" width="1280" height="720" viewBox="0 0 1280 720">
    <defs>
      <radialGradient id="bg" cx="70%" cy="42%" r="80%"><stop stop-color="#60a5fa" stop-opacity=".14"/><stop offset=".5" stop-color="#10181b"/><stop offset="1" stop-color="#0a0e11"/></radialGradient>
      <filter id="grain"><feTurbulence baseFrequency=".7" numOctaves="2" seed="71"/><feColorMatrix values="1 0 0 0 0 0 1 0 0 0 0 0 1 0 0 0 0 0 .04 0"/></filter>
    </defs>
    <rect width="1280" height="720" fill="url(#bg)"/>
    <rect x="431.20000000000005" y="151.20000000000002" width="46.4" height="46.4" fill="#141b19" stroke="#4a5852" stroke-width="2"/>
<text x="454.40000000000003" y="182.288" text-anchor="middle" font-family="system-ui" font-size="21.344" font-weight="700" fill="#cfd8d3">5</text>
<rect x="477.6" y="151.20000000000002" width="46.4" height="46.4" fill="#141b19" stroke="#2a3530" stroke-width="1"/>
<text x="500.8" y="182.288" text-anchor="middle" font-family="system-ui" font-size="21.344" font-weight="700" fill="#cfd8d3">3</text>
<rect x="524" y="151.20000000000002" width="46.4" height="46.4" fill="#141b19" stroke="#2a3530" stroke-width="1"/>
<rect x="570.4000000000001" y="151.20000000000002" width="46.4" height="46.4" fill="#141b19" stroke="#4a5852" stroke-width="2"/>
<rect x="616.8000000000001" y="151.20000000000002" width="46.4" height="46.4" fill="#141b19" stroke="#2a3530" stroke-width="1"/>
<text x="640.0000000000001" y="182.288" text-anchor="middle" font-family="system-ui" font-size="21.344" font-weight="700" fill="#cfd8d3">7</text>
<rect x="663.2" y="151.20000000000002" width="46.4" height="46.4" fill="#141b19" stroke="#2a3530" stroke-width="1"/>
<rect x="709.6" y="151.20000000000002" width="46.4" height="46.4" fill="#141b19" stroke="#4a5852" stroke-width="2"/>
<rect x="756" y="151.20000000000002" width="46.4" height="46.4" fill="#141b19" stroke="#2a3530" stroke-width="1"/>
<rect x="802.4000000000001" y="151.20000000000002" width="46.4" height="46.4" fill="#141b19" stroke="#2a3530" stroke-width="1"/>
<rect x="431.20000000000005" y="197.60000000000002" width="46.4" height="46.4" fill="#141b19" stroke="#4a5852" stroke-width="2"/>
<text x="454.40000000000003" y="228.68800000000002" text-anchor="middle" font-family="system-ui" font-size="21.344" font-weight="700" fill="#cfd8d3">6</text>
<rect x="477.6" y="197.60000000000002" width="46.4" height="46.4" fill="#141b19" stroke="#2a3530" stroke-width="1"/>
<rect x="524" y="197.60000000000002" width="46.4" height="46.4" fill="#141b19" stroke="#2a3530" stroke-width="1"/>
<rect x="570.4000000000001" y="197.60000000000002" width="46.4" height="46.4" fill="#141b19" stroke="#4a5852" stroke-width="2"/>
<text x="593.6000000000001" y="228.68800000000002" text-anchor="middle" font-family="system-ui" font-size="21.344" font-weight="700" fill="#cfd8d3">1</text>
<rect x="616.8000000000001" y="197.60000000000002" width="46.4" height="46.4" fill="#141b19" stroke="#2a3530" stroke-width="1"/>
<text x="640.0000000000001" y="228.68800000000002" text-anchor="middle" font-family="system-ui" font-size="21.344" font-weight="700" fill="#cfd8d3">9</text>
<rect x="663.2" y="197.60000000000002" width="46.4" height="46.4" fill="#141b19" stroke="#2a3530" stroke-width="1"/>
<text x="686.4000000000001" y="228.68800000000002" text-anchor="middle" font-family="system-ui" font-size="21.344" font-weight="700" fill="#cfd8d3">5</text>
<rect x="709.6" y="197.60000000000002" width="46.4" height="46.4" fill="#141b19" stroke="#4a5852" stroke-width="2"/>
<rect x="756" y="197.60000000000002" width="46.4" height="46.4" fill="#141b19" stroke="#2a3530" stroke-width="1"/>
<rect x="802.4000000000001" y="197.60000000000002" width="46.4" height="46.4" fill="#141b19" stroke="#2a3530" stroke-width="1"/>
<rect x="431.20000000000005" y="244" width="46.4" height="46.4" fill="#141b19" stroke="#4a5852" stroke-width="2"/>
<rect x="477.6" y="244" width="46.4" height="46.4" fill="#141b19" stroke="#2a3530" stroke-width="1"/>
<text x="500.8" y="275.08799999999997" text-anchor="middle" font-family="system-ui" font-size="21.344" font-weight="700" fill="#cfd8d3">9</text>
<rect x="524" y="244" width="46.4" height="46.4" fill="#141b19" stroke="#2a3530" stroke-width="1"/>
<text x="547.2" y="275.08799999999997" text-anchor="middle" font-family="system-ui" font-size="21.344" font-weight="700" fill="#cfd8d3">8</text>
<rect x="570.4000000000001" y="244" width="46.4" height="46.4" fill="#141b19" stroke="#4a5852" stroke-width="2"/>
<rect x="616.8000000000001" y="244" width="46.4" height="46.4" fill="#141b19" stroke="#2a3530" stroke-width="1"/>
<rect x="663.2" y="244" width="46.4" height="46.4" fill="#141b19" stroke="#2a3530" stroke-width="1"/>
<rect x="709.6" y="244" width="46.4" height="46.4" fill="#141b19" stroke="#4a5852" stroke-width="2"/>
<rect x="756" y="244" width="46.4" height="46.4" fill="#141b19" stroke="#2a3530" stroke-width="1"/>
<text x="779.2" y="275.08799999999997" text-anchor="middle" font-family="system-ui" font-size="21.344" font-weight="700" fill="#cfd8d3">6</text>
<rect x="802.4000000000001" y="244" width="46.4" height="46.4" fill="#141b19" stroke="#2a3530" stroke-width="1"/>
<rect x="431.20000000000005" y="290.4" width="46.4" height="46.4" fill="#141b19" stroke="#4a5852" stroke-width="2"/>
<text x="454.40000000000003" y="321.48799999999994" text-anchor="middle" font-family="system-ui" font-size="21.344" font-weight="700" fill="#cfd8d3">8</text>
<rect x="477.6" y="290.4" width="46.4" height="46.4" fill="#141b19" stroke="#2a3530" stroke-width="1"/>
<rect x="524" y="290.4" width="46.4" height="46.4" fill="#141b19" stroke="#2a3530" stroke-width="1"/>
<rect x="570.4000000000001" y="290.4" width="46.4" height="46.4" fill="#141b19" stroke="#4a5852" stroke-width="2"/>
<rect x="616.8000000000001" y="290.4" width="46.4" height="46.4" fill="#141b19" stroke="#2a3530" stroke-width="1"/>
<text x="640.0000000000001" y="321.48799999999994" text-anchor="middle" font-family="system-ui" font-size="21.344" font-weight="700" fill="#cfd8d3">6</text>
<rect x="663.2" y="290.4" width="46.4" height="46.4" fill="#141b19" stroke="#2a3530" stroke-width="1"/>
<rect x="709.6" y="290.4" width="46.4" height="46.4" fill="#141b19" stroke="#4a5852" stroke-width="2"/>
<rect x="756" y="290.4" width="46.4" height="46.4" fill="#141b19" stroke="#2a3530" stroke-width="1"/>
<rect x="802.4000000000001" y="290.4" width="46.4" height="46.4" fill="#141b19" stroke="#2a3530" stroke-width="1"/>
<text x="825.6000000000001" y="321.48799999999994" text-anchor="middle" font-family="system-ui" font-size="21.344" font-weight="700" fill="#cfd8d3">3</text>
<rect x="431.20000000000005" y="336.8" width="46.4" height="46.4" fill="#141b19" stroke="#4a5852" stroke-width="2"/>
<text x="454.40000000000003" y="367.888" text-anchor="middle" font-family="system-ui" font-size="21.344" font-weight="700" fill="#cfd8d3">4</text>
<rect x="477.6" y="336.8" width="46.4" height="46.4" fill="#141b19" stroke="#2a3530" stroke-width="1"/>
<rect x="524" y="336.8" width="46.4" height="46.4" fill="#141b19" stroke="#2a3530" stroke-width="1"/>
<rect x="570.4000000000001" y="336.8" width="46.4" height="46.4" fill="#141b19" stroke="#4a5852" stroke-width="2"/>
<text x="593.6000000000001" y="367.888" text-anchor="middle" font-family="system-ui" font-size="21.344" font-weight="700" fill="#cfd8d3">8</text>
<rect x="616.8000000000001" y="336.8" width="46.4" height="46.4" fill="#141b19" stroke="#2a3530" stroke-width="1"/>
<rect x="663.2" y="336.8" width="46.4" height="46.4" fill="#141b19" stroke="#2a3530" stroke-width="1"/>
<text x="686.4000000000001" y="367.888" text-anchor="middle" font-family="system-ui" font-size="21.344" font-weight="700" fill="#cfd8d3">3</text>
<rect x="709.6" y="336.8" width="46.4" height="46.4" fill="#141b19" stroke="#4a5852" stroke-width="2"/>
<rect x="756" y="336.8" width="46.4" height="46.4" fill="#141b19" stroke="#2a3530" stroke-width="1"/>
<rect x="802.4000000000001" y="336.8" width="46.4" height="46.4" fill="#141b19" stroke="#2a3530" stroke-width="1"/>
<text x="825.6000000000001" y="367.888" text-anchor="middle" font-family="system-ui" font-size="21.344" font-weight="700" fill="#cfd8d3">1</text>
<rect x="431.20000000000005" y="383.20000000000005" width="46.4" height="46.4" fill="#141b19" stroke="#4a5852" stroke-width="2"/>
<text x="454.40000000000003" y="414.288" text-anchor="middle" font-family="system-ui" font-size="21.344" font-weight="700" fill="#cfd8d3">7</text>
<rect x="477.6" y="383.20000000000005" width="46.4" height="46.4" fill="#141b19" stroke="#2a3530" stroke-width="1"/>
<rect x="524" y="383.20000000000005" width="46.4" height="46.4" fill="#141b19" stroke="#2a3530" stroke-width="1"/>
<rect x="570.4000000000001" y="383.20000000000005" width="46.4" height="46.4" fill="#141b19" stroke="#4a5852" stroke-width="2"/>
<rect x="616.8000000000001" y="383.20000000000005" width="46.4" height="46.4" fill="#141b19" stroke="#2a3530" stroke-width="1"/>
<text x="640.0000000000001" y="414.288" text-anchor="middle" font-family="system-ui" font-size="21.344" font-weight="700" fill="#cfd8d3">2</text>
<rect x="663.2" y="383.20000000000005" width="46.4" height="46.4" fill="#141b19" stroke="#2a3530" stroke-width="1"/>
<rect x="709.6" y="383.20000000000005" width="46.4" height="46.4" fill="#141b19" stroke="#4a5852" stroke-width="2"/>
<rect x="756" y="383.20000000000005" width="46.4" height="46.4" fill="#141b19" stroke="#2a3530" stroke-width="1"/>
<rect x="802.4000000000001" y="383.20000000000005" width="46.4" height="46.4" fill="#141b19" stroke="#2a3530" stroke-width="1"/>
<text x="825.6000000000001" y="414.288" text-anchor="middle" font-family="system-ui" font-size="21.344" font-weight="700" fill="#cfd8d3">6</text>
<rect x="431.20000000000005" y="429.6" width="46.4" height="46.4" fill="#141b19" stroke="#4a5852" stroke-width="2"/>
<rect x="477.6" y="429.6" width="46.4" height="46.4" fill="#141b19" stroke="#2a3530" stroke-width="1"/>
<text x="500.8" y="460.688" text-anchor="middle" font-family="system-ui" font-size="21.344" font-weight="700" fill="#cfd8d3">6</text>
<rect x="524" y="429.6" width="46.4" height="46.4" fill="#141b19" stroke="#2a3530" stroke-width="1"/>
<rect x="570.4000000000001" y="429.6" width="46.4" height="46.4" fill="#141b19" stroke="#4a5852" stroke-width="2"/>
<rect x="616.8000000000001" y="429.6" width="46.4" height="46.4" fill="#141b19" stroke="#2a3530" stroke-width="1"/>
<rect x="663.2" y="429.6" width="46.4" height="46.4" fill="#141b19" stroke="#2a3530" stroke-width="1"/>
<rect x="709.6" y="429.6" width="46.4" height="46.4" fill="#141b19" stroke="#4a5852" stroke-width="2"/>
<text x="732.8000000000001" y="460.688" text-anchor="middle" font-family="system-ui" font-size="21.344" font-weight="700" fill="#cfd8d3">2</text>
<rect x="756" y="429.6" width="46.4" height="46.4" fill="#141b19" stroke="#2a3530" stroke-width="1"/>
<text x="779.2" y="460.688" text-anchor="middle" font-family="system-ui" font-size="21.344" font-weight="700" fill="#cfd8d3">8</text>
<rect x="802.4000000000001" y="429.6" width="46.4" height="46.4" fill="#141b19" stroke="#2a3530" stroke-width="1"/>
<rect x="431.20000000000005" y="476" width="46.4" height="46.4" fill="#141b19" stroke="#4a5852" stroke-width="2"/>
<rect x="477.6" y="476" width="46.4" height="46.4" fill="#141b19" stroke="#2a3530" stroke-width="1"/>
<rect x="524" y="476" width="46.4" height="46.4" fill="#141b19" stroke="#2a3530" stroke-width="1"/>
<rect x="570.4000000000001" y="476" width="46.4" height="46.4" fill="#141b19" stroke="#4a5852" stroke-width="2"/>
<text x="593.6000000000001" y="507.08799999999997" text-anchor="middle" font-family="system-ui" font-size="21.344" font-weight="700" fill="#cfd8d3">4</text>
<rect x="616.8000000000001" y="476" width="46.4" height="46.4" fill="#141b19" stroke="#2a3530" stroke-width="1"/>
<text x="640.0000000000001" y="507.08799999999997" text-anchor="middle" font-family="system-ui" font-size="21.344" font-weight="700" fill="#cfd8d3">1</text>
<rect x="663.2" y="476" width="46.4" height="46.4" fill="#141b19" stroke="#2a3530" stroke-width="1"/>
<text x="686.4000000000001" y="507.08799999999997" text-anchor="middle" font-family="system-ui" font-size="21.344" font-weight="700" fill="#cfd8d3">9</text>
<rect x="709.6" y="476" width="46.4" height="46.4" fill="#141b19" stroke="#4a5852" stroke-width="2"/>
<rect x="756" y="476" width="46.4" height="46.4" fill="#141b19" stroke="#2a3530" stroke-width="1"/>
<rect x="802.4000000000001" y="476" width="46.4" height="46.4" fill="#141b19" stroke="#2a3530" stroke-width="1"/>
<text x="825.6000000000001" y="507.08799999999997" text-anchor="middle" font-family="system-ui" font-size="21.344" font-weight="700" fill="#cfd8d3">5</text>
<rect x="431.20000000000005" y="522.4" width="46.4" height="46.4" fill="#141b19" stroke="#4a5852" stroke-width="2"/>
<rect x="477.6" y="522.4" width="46.4" height="46.4" fill="#141b19" stroke="#2a3530" stroke-width="1"/>
<rect x="524" y="522.4" width="46.4" height="46.4" fill="#141b19" stroke="#2a3530" stroke-width="1"/>
<rect x="570.4000000000001" y="522.4" width="46.4" height="46.4" fill="#141b19" stroke="#4a5852" stroke-width="2"/>
<rect x="616.8000000000001" y="522.4" width="46.4" height="46.4" fill="#141b19" stroke="#2a3530" stroke-width="1"/>
<text x="640.0000000000001" y="553.488" text-anchor="middle" font-family="system-ui" font-size="21.344" font-weight="700" fill="#cfd8d3">8</text>
<rect x="663.2" y="522.4" width="46.4" height="46.4" fill="#141b19" stroke="#2a3530" stroke-width="1"/>
<rect x="709.6" y="522.4" width="46.4" height="46.4" fill="#141b19" stroke="#4a5852" stroke-width="2"/>
<rect x="756" y="522.4" width="46.4" height="46.4" fill="#141b19" stroke="#2a3530" stroke-width="1"/>
<text x="779.2" y="553.488" text-anchor="middle" font-family="system-ui" font-size="21.344" font-weight="700" fill="#cfd8d3">7</text>
<rect x="802.4000000000001" y="522.4" width="46.4" height="46.4" fill="#141b19" stroke="#2a3530" stroke-width="1"/>
<text x="825.6000000000001" y="553.488" text-anchor="middle" font-family="system-ui" font-size="21.344" font-weight="700" fill="#cfd8d3">9</text>
    <rect width="1280" height="720" filter="url(#grain)" opacity=".5"/>
  </svg>