<svg xmlns="http://www.w3.org/2000/svg" width="1280" height="720" viewBox="0 0 1280 720"><defs><radialGradient id="b" cx="70%" cy="45%" r="75%"><stop stop-color="#60a5fa" stop-opacity=".18"/><stop offset=".45" stop-color="#17201c"/><stop offset="1" stop-color="#101210"/></radialGradient><filter id="g"><feTurbulence baseFrequency=".7" seed="21"/><feColorMatrix values="1 0 0 0 0 0 1 0 0 0 0 0 1 0 0 0 0 0 .025 0"/></filter></defs><rect width="1280" height="720" fill="url(#b)"/><path d="M64 576 C320 396.00000000000006,486.4 648,742.4 417.59999999999997" fill="none" stroke="#60a5fa" stroke-opacity=".35" stroke-width="2.56"/><rect x="614.4" y="172.79999999999998" width="96" height="96" rx="15.36" fill="#202823" stroke="#60a5fa" stroke-width="2.56"/><text x="662.4" y="236.79999999999998" text-anchor="middle" font-family="system-ui" font-size="34.56" font-weight="700" fill="#60a5fa">W</text><rect x="729.5999999999999" y="172.79999999999998" width="96" height="96" rx="15.36" fill="#202823" stroke="#9bd5ff" stroke-width="2.56"/><text x="777.5999999999999" y="236.79999999999998" text-anchor="middle" font-family="system-ui" font-size="34.56" font-weight="700" fill="#9bd5ff">O</text><rect x="844.8" y="172.79999999999998" width="96" height="96" rx="15.36" fill="#202823" stroke="#60a5fa" stroke-width="2.56"/><text x="892.8" y="236.79999999999998" text-anchor="middle" font-family="system-ui" font-size="34.56" font-weight="700" fill="#60a5fa">R</text><rect x="960" y="172.79999999999998" width="96" height="96" rx="15.36" fill="#202823" stroke="#9bd5ff" stroke-width="2.56"/><text x="1008" y="236.79999999999998" text-anchor="middle" font-family="system-ui" font-size="34.56" font-weight="700" fill="#9bd5ff">D</text><rect x="614.4" y="302.4" width="96" height="96" rx="15.36" fill="#202823" stroke="#60a5fa" stroke-width="2.56"/><text x="662.4" y="366.4" text-anchor="middle" font-family="system-ui" font-size="34.56" font-weight="700" fill="#60a5fa">P</text><rect x="729.5999999999999" y="302.4" width="96" height="96" rx="15.36" fill="#202823" stroke="#9bd5ff" stroke-width="2.56"/><text x="777.5999999999999" y="366.4" text-anchor="middle" font-family="system-ui" font-size="34.56" font-weight="700" fill="#9bd5ff">A</text><rect x="844.8" y="302.4" width="96" height="96" rx="15.36" fill="#202823" stroke="#60a5fa" stroke-width="2.56"/><text x="892.8" y="366.4" text-anchor="middle" font-family="system-ui" font-size="34.56" font-weight="700" fill="#60a5fa">T</text><rect x="960" y="302.4" width="96" height="96" rx="15.36" fill="#202823" stroke="#9bd5ff" stroke-width="2.56"/><text x="1008" y="366.4" text-anchor="middle" font-family="system-ui" font-size="34.56" font-weight="700" fill="#9bd5ff">H</text><rect x="614.4" y="432" width="96" height="96" rx="15.36" fill="#202823" stroke="#60a5fa" stroke-width="2.56"/><text x="662.4" y="496" text-anchor="middle" font-family="system-ui" font-size="34.56" font-weight="700" fill="#60a5fa">R</text><rect x="729.5999999999999" y="432" width="96" height="96" rx="15.36" fill="#202823" stroke="#9bd5ff" stroke-width="2.56"/><text x="777.5999999999999" y="496" text-anchor="middle" font-family="system-ui" font-size="34.56" font-weight="700" fill="#9bd5ff">I</text><rect x="844.8" y="432" width="96" height="96" rx="15.36" fill="#202823" stroke="#60a5fa" stroke-width="2.56"/><text x="892.8" y="496" text-anchor="middle" font-family="system-ui" font-size="34.56" font-weight="700" fill="#60a5fa">S</text><rect x="960" y="432" width="96" height="96" rx="15.36" fill="#202823" stroke="#9bd5ff" stroke-width="2.56"/><text x="1008" y="496" text-anchor="middle" font-family="system-ui" font-size="34.56" font-weight="700" fill="#9bd5ff">E</text><circle cx="1049.6" cy="180" r="129.6" fill="#9bd5ff" opacity=".055"/><rect width="1280" height="720" filter="url(#g)"/></svg>