<svg xmlns="http://www.w3.org/2000/svg" viewBox="0 0 96 96"><rect width="96" height="96" rx="22" fill="#151b18"/><g transform="translate(18 18)"><ellipse cx="13.5" cy="43.300000000000004" rx="4.25" ry="0.8" fill="#000" opacity=".28"/><ellipse cx="13.5" cy="40.800000000000004" rx="2.5" ry="0.8500000000000001" fill="#fb923c" opacity=".95"/><ellipse cx="13.5" cy="40.550000000000004" rx="2.1" ry="0.6" fill="#fff" opacity=".12"/><ellipse cx="13.5" cy="39.1" rx="2.5" ry="0.8500000000000001" fill="#fb923c" opacity=".95"/><ellipse cx="13.5" cy="38.85" rx="2.1" ry="0.6" fill="#fff" opacity=".12"/><ellipse cx="13.5" cy="37.400000000000006" rx="2.5" ry="0.8500000000000001" fill="#fb923c" opacity=".95"/><ellipse cx="13.5" cy="37.150000000000006" rx="2.1" ry="0.6" fill="#fff" opacity=".12"/><ellipse cx="26.5" cy="43.300000000000004" rx="4.25" ry="0.8" fill="#000" opacity=".28"/><ellipse cx="26.5" cy="40.800000000000004" rx="2.5" ry="0.8500000000000001" fill="#fb923c" opacity=".95"/><ellipse cx="26.5" cy="40.550000000000004" rx="2.1" ry="0.6" fill="#fff" opacity=".12"/><ellipse cx="26.5" cy="39.1" rx="2.5" ry="0.8500000000000001" fill="#fb923c" opacity=".95"/><ellipse cx="26.5" cy="38.85" rx="2.1" ry="0.6" fill="#fff" opacity=".12"/><ellipse cx="26.5" cy="37.400000000000006" rx="2.5" ry="0.8500000000000001" fill="#fb923c" opacity=".95"/><ellipse cx="26.5" cy="37.150000000000006" rx="2.1" ry="0.6" fill="#fff" opacity=".12"/><ellipse cx="26.5" cy="35.7" rx="2.5" ry="0.8500000000000001" fill="#ffe0bd" opacity=".95"/><ellipse cx="26.5" cy="35.45" rx="2.1" ry="0.6" fill="#fff" opacity=".12"/><ellipse cx="39.5" cy="43.300000000000004" rx="4.25" ry="0.8" fill="#000" opacity=".28"/><ellipse cx="39.5" cy="40.800000000000004" rx="2.5" ry="0.8500000000000001" fill="#fb923c" opacity=".95"/><ellipse cx="39.5" cy="40.550000000000004" rx="2.1" ry="0.6" fill="#fff" opacity=".12"/><ellipse cx="39.5" cy="39.1" rx="2.5" ry="0.8500000000000001" fill="#fb923c" opacity=".95"/><ellipse cx="39.5" cy="38.85" rx="2.1" ry="0.6" fill="#fff" opacity=".12"/><ellipse cx="39.5" cy="37.400000000000006" rx="2.5" ry="0.8500000000000001" fill="#fb923c" opacity=".95"/><ellipse cx="39.5" cy="37.150000000000006" rx="2.1" ry="0.6" fill="#fff" opacity=".12"/><ellipse cx="39.5" cy="35.7" rx="2.5" ry="0.8500000000000001" fill="#fb923c" opacity=".95"/><ellipse cx="39.5" cy="35.45" rx="2.1" ry="0.6" fill="#fff" opacity=".12"/><ellipse cx="39.5" cy="34" rx="2.5" ry="0.8500000000000001" fill="#fb923c" opacity=".95"/><ellipse cx="39.5" cy="33.75" rx="2.1" ry="0.6" fill="#fff" opacity=".12"/></g></svg>