<svg xmlns="http://www.w3.org/2000/svg" width="1280" height="720" viewBox="0 0 1280 720"><defs><radialGradient id="b" cx="68%" cy="40%" r="75%"><stop stop-color="#2dd4bf" stop-opacity=".16"/><stop offset=".5" stop-color="#151a18"/><stop offset="1" stop-color="#101210"/></radialGradient></defs><rect width="1280" height="720" fill="url(#b)"/><path d="M153.6 201.6 H1126.4" fill="none" stroke="#2dd4bf" stroke-opacity=".22" stroke-width="1.8285714285714285"/><path d="M182.85714285714286 129.6 V590.4" fill="none" stroke="#2dd4bf" stroke-opacity=".18" stroke-width="1.8285714285714285"/><path d="M153.6 273.6 H1126.4" fill="none" stroke="#2dd4bf" stroke-opacity=".22" stroke-width="1.8285714285714285"/><path d="M365.7142857142857 129.6 V590.4" fill="none" stroke="#2dd4bf" stroke-opacity=".18" stroke-width="1.8285714285714285"/><path d="M153.6 345.59999999999997 H1126.4" fill="none" stroke="#2dd4bf" stroke-opacity=".22" stroke-width="1.8285714285714285"/><path d="M548.5714285714286 129.6 V590.4" fill="none" stroke="#2dd4bf" stroke-opacity=".18" stroke-width="1.8285714285714285"/><path d="M153.6 417.6 H1126.4" fill="none" stroke="#2dd4bf" stroke-opacity=".22" stroke-width="1.8285714285714285"/><path d="M731.4285714285714 129.6 V590.4" fill="none" stroke="#2dd4bf" stroke-opacity=".18" stroke-width="1.8285714285714285"/><path d="M153.6 489.6 H1126.4" fill="none" stroke="#2dd4bf" stroke-opacity=".22" stroke-width="1.8285714285714285"/><path d="M914.2857142857143 129.6 V590.4" fill="none" stroke="#2dd4bf" stroke-opacity=".18" stroke-width="1.8285714285714285"/><path d="M153.6 561.5999999999999 H1126.4" fill="none" stroke="#2dd4bf" stroke-opacity=".22" stroke-width="1.8285714285714285"/><path d="M1097.142857142857 129.6 V590.4" fill="none" stroke="#2dd4bf" stroke-opacity=".18" stroke-width="1.8285714285714285"/><path d="M409.6 273.6 h102.4 M460.79999999999995 244.8 v57.6" fill="none" stroke="#2dd4bf" stroke-width="7.111111111111111" stroke-linecap="round"/><path d="M742.4 244.8 l76.8 57.6 M819.2 244.8 l-76.8 57.6" fill="none" stroke="#9ff4e4" stroke-width="7.111111111111111" stroke-linecap="round"/><path d="M384 446.4 h128" fill="none" stroke="#2dd4bf" stroke-width="7.111111111111111" stroke-linecap="round"/><path d="M793.6 417.59999999999997 v57.6" fill="none" stroke="#9ff4e4" stroke-width="7.111111111111111" stroke-linecap="round"/><circle cx="1024" cy="158.4" r="115.2" fill="#9ff4e4" opacity=".05"/></svg>